<?xml version="1.0" standalone="no"?>
<!DOCTYPE svg PUBLIC "-//W3C//DTD SVG 20010904//EN"
 "http://www.w3.org/TR/2001/REC-SVG-20010904/DTD/svg10.dtd">
<svg version="1.0" xmlns="http://www.w3.org/2000/svg"
 width="120.000000pt" height="120.000000pt" viewBox="0 0 120.000000 120.000000"
 preserveAspectRatio="xMidYMid meet">
<metadata>
Created by potrace 1.11, written by Peter Selinger 2001-2013
</metadata>
<g transform="translate(0.000000,120.000000) scale(0.100000,-0.100000)"
fill="#000000" stroke="none">
<path d="M1 1008 l0 -193 28 85 c35 109 74 180 135 247 l48 53 -106 0 -106 0
1 -192z"/>
<path d="M990 1196 c0 -2 14 -19 32 -37 71 -76 120 -171 161 -314 14 -48 15
-41 16 153 l1 202 -105 0 c-58 0 -105 -2 -105 -4z"/>
<path d="M177 893 c-52 -98 -109 -206 -126 -240 -17 -34 -35 -64 -41 -68 -5
-3 -10 -38 -10 -77 0 -68 0 -70 18 -49 17 21 23 22 227 19 l210 -3 73 -142 74
-143 74 0 c41 0 74 3 74 6 0 5 -197 388 -378 734 -60 116 -76 139 -94 140 -3
0 -49 -80 -101 -177z m159 -188 c46 -88 84 -165 84 -172 0 -10 -40 -13 -180
-13 -138 0 -180 3 -180 13 0 22 172 338 183 334 5 -1 47 -75 93 -162z"/>
<path d="M430 971 c0 -4 24 -53 54 -107 87 -162 268 -500 340 -636 51 -96 72
-128 87 -128 15 0 46 53 145 253 69 138 130 254 135 255 5 2 9 38 8 80 l0 77
-114 -230 c-77 -156 -118 -230 -129 -230 -10 0 -74 108 -192 330 -96 181 -181
333 -187 337 -17 11 -147 10 -147 -1z"/>
<path d="M1177 363 c-26 -104 -89 -224 -159 -298 l-60 -65 121 0 121 0 0 215
c0 118 -2 215 -4 215 -2 0 -10 -30 -19 -67z"/>
<path d="M1 213 l-1 -213 116 0 117 0 -50 53 c-80 85 -134 188 -168 322 -12
45 -13 30 -14 -162z"/>
</g>
</svg>
