<?xml version="1.0" encoding="UTF-8"?>
<svg id="Lager_2" data-name="Lager 2" xmlns="http://www.w3.org/2000/svg" viewBox="0 0 179.96 38.58">
  <defs>
    <style>
      .cls-1 {
        fill: #fff;
      }
    </style>
  </defs>
  <g id="Layer_1" data-name="Layer 1">
    <g>
      <g>
        <path class="cls-1" d="M57.65,27.3c3.61,0,4.09-.62,4.14-3.96.09-5.72.18-11.88.18-18.22,0-3.34-.53-3.96-3.87-3.96V.27h21.21l.92,5.02h-.7c-2.02-2.51-3.26-3.96-7.39-3.96h-3.79c-2.2,0-2.6.22-2.6,1.76v9.59h4.53c3.78,0,4.14-.57,4.8-3.83h.97v9.59h-.97c-.48-3.43-1.23-4.27-4.4-4.27h-4.93v11.09c0,1.5.66,1.85,2.82,1.85h5.81c4.18,0,5.02-.79,7.83-5.5h.84c-.44,1.14-1.14,4.89-1.5,6.56h-23.9v-.88Z"/>
        <path class="cls-1" d="M84.6,27.47c2.38,0,2.9-.62,2.9-3.96v-8.23c0-1.01-.22-1.19-1.06-1.72-.35-.22-.53-.31-.53-.57,0-.35.26-.48.75-.75,1.5-.92,2.68-1.67,3.26-1.67.22,0,.48.13.48.53v1.8c1.19-.79,2.99-2.07,5.85-2.07,2.6,0,6.03.97,6.03,6.12v6.56c0,3.34.53,3.96,2.6,3.96v.7h-8.27v-.7c2.07,0,2.6-.62,2.6-3.96v-5.81c0-3.57-1.54-5.37-4.58-5.37-1.8,0-3.34,1.36-4.05,2.2v8.98c0,3.34.53,3.96,2.68,3.96v.7h-8.67v-.7Z"/>
        <path class="cls-1" d="M113.68,23.49c-.97,0-1.5-.09-1.98-.22-1.14.79-2.6,1.36-2.6,2.38,0,1.23,1.36,1.5,9.07,1.85,3.17.13,4.49,1.5,4.49,3.83,0,5.72-5.59,7.26-10.52,7.26-3.35,0-7.7-.79-7.7-3.7,0-2.07,1.5-3.12,5.02-4.88-1.8-.88-3.04-2.38-3.04-3.65,0-1.41,2.11-2.07,4.09-3.56-2.46-1.06-4.09-2.95-4.09-5.77,0-3.83,2.86-6.16,6.91-6.16,2.77,0,5.15,1.06,5.99,1.06.92,0,2.2-.53,3.43-.53,1.01,0,1.5.26,1.5.92,0,.75-.53,1.19-1.41,1.19s-1.36-.53-2.07-.53c-.62,0-.97.35-.97.92,0,1.19.57,1.41.57,3.48,0,3.61-3.34,6.12-6.69,6.12M113.5,37.7c3.57,0,6.95-1.58,6.95-4.8,0-1.85-1.54-2.6-9.33-2.6-1.72.66-3.61,1.98-3.61,4.05,0,2.2,2.73,3.34,5.99,3.34M113.02,11.74c-2.33,0-3.78,2.07-3.78,5.06,0,3.26,1.54,5.81,4.53,5.81,2.33,0,3.78-1.5,3.78-4.31,0-3.7-1.54-6.56-4.53-6.56"/>
        <path class="cls-1" d="M124.99,27.47c2.11,0,2.64-.62,2.64-3.96v-7.83c0-1.06-.22-1.5-1.06-1.89-.62-.31-.84-.35-.84-.62,0-.35.35-.48,2.02-1.23,1.94-.84,2.02-1.36,2.51-1.36.31,0,.44.18.44.48v1.45c0,.35.18.53.44.53.4,0,2.6-2.2,4.84-2.2,1.19,0,1.94.53,1.94,1.54,0,.79-.48,1.5-2.02,1.5-.57,0-1.63-.13-2.42-.13-1.58,0-2.77.79-2.77,3.17v7.22c0,2.73.48,3.26,2.73,3.34v.7h-8.45v-.7Z"/>
        <path class="cls-1" d="M148.71,15.68c0-3.04-1.14-3.79-2.99-3.79-4.05,0-2.38,4.53-4.97,4.53-.75,0-1.28-.4-1.28-1.19,0-1.63,3.96-4.4,7.35-4.4,2.95,0,4.97,1.5,4.97,5.28v9.64c0,1.01.62,1.28,1.1,1.28.66,0,1.1-.26,1.54-.66l.44.48c-.62.97-2.11,1.67-3.43,1.67s-2.64-.97-2.73-2.6c-2.07,1.89-4.09,2.6-5.77,2.6-2.51,0-4.27-1.5-4.27-3.43,0-3.04,2.51-3.92,7.66-5.24l2.38-.62v-3.56ZM148.71,19.95l-1.76.44c-3.3.84-5.02,1.85-5.02,3.7,0,1.63.92,2.95,2.91,2.95,1.41,0,2.68-.88,3.87-1.8v-5.28Z"/>
        <path class="cls-1" d="M165.13,12.68h-3.08c-1.8,0-2.42.44-2.42,3.17v8.49c0,1.94,1.19,2.68,2.82,2.68,1.23,0,2.24-.22,3.08-.35v.88c-1.23.44-2.46.97-4.45.97-3.65,0-4.53-2.29-4.53-4.4v-9.77c0-1.45-.09-1.58-.53-1.76-.35-.13-1.41-.18-1.41-.62,0-.31.4-.62.75-.97,2.95-2.99,3.34-3.61,3.79-3.61.26,0,.48.13.48.7v3.08h5.5v1.5Z"/>
        <path class="cls-1" d="M168.16,17.08c-.18.66-.31,1.41-.31,2.6,0,3.92,2.38,7.35,6.47,7.35,1.76,0,3.17-.62,5.11-1.94l.53.7c-1.98,1.58-3.92,2.99-6.78,2.99-5.24,0-8.41-4.49-8.41-8.36,0-5.55,3.87-9.33,8.49-9.33,3.7,0,6.6,3.04,6.6,5.77,0,.18-.13.22-.44.22h-11.27ZM176.79,16.03c-.18-2.38-1.72-4.05-3.96-4.05-2.55,0-3.96,2.07-4.45,4.05h8.41Z"/>
      </g>
      <g>
        <path class="cls-1" d="M.2,15.44l6.3,12.07c.18.34.59.34.77,0l6.3-12.07c.26-.5.27-1.12.03-1.63L7.28.28c-.17-.37-.62-.37-.79,0L.17,13.8c-.24.51-.23,1.14.03,1.63"/>
        <path class="cls-1" d="M12.25,15.44l6.3,12.07c.18.34.59.34.77,0l6.3-12.07c.26-.5.27-1.12.03-1.63L19.33.28c-.17-.37-.62-.37-.79,0l-6.32,13.53c-.24.51-.23,1.14.03,1.63"/>
        <path class="cls-1" d="M24.31,15.44l6.3,12.07c.18.34.59.34.77,0l6.3-12.07c.26-.5.27-1.12.03-1.63L31.39.28c-.17-.37-.62-.37-.79,0l-6.32,13.53c-.24.51-.23,1.14.03,1.63"/>
      </g>
    </g>
  </g>
</svg>